<?xml version="1.0" encoding="utf-8"?>
<!-- Generator: Adobe Illustrator 16.0.0, SVG Export Plug-In . SVG Version: 6.00 Build 0)  -->
<!DOCTYPE svg PUBLIC "-//W3C//DTD SVG 1.1//EN" "http://www.w3.org/Graphics/SVG/1.1/DTD/svg11.dtd">
<svg version="1.1" id="Layer_1" xmlns="http://www.w3.org/2000/svg" xmlns:xlink="http://www.w3.org/1999/xlink" x="0px" y="0px"
	 width="216.004px" height="9.565px" viewBox="0 0 216.004 9.565" enable-background="new 0 0 216.004 9.565" xml:space="preserve">
<g>
	<path d="M118.276,7.454c1.254,0.273,2.523-0.67,2.838-2.11c0.186-0.848-0.006-1.674-0.449-2.268
		c-0.004,0.221-0.012,0.449-0.031,0.684c-0.148,1.979-1.225,2.543-2.016,2.374c-0.791-0.172-1.311-0.805-0.848-2.997
		c0.051-0.24,0.119-0.467,0.199-0.682c-0.671,0.35-1.207,1.035-1.396,1.9C116.261,5.795,117.022,7.182,118.276,7.454z"/>
	<path d="M107.232,7.151c1.2,0.252,2.414-0.617,2.714-1.938c0.176-0.779-0.008-1.539-0.43-2.086
		c-0.004,0.203-0.013,0.414-0.031,0.631c-0.143,1.817-1.169,2.336-1.926,2.178c-0.756-0.158-1.254-0.739-0.811-2.752
		c0.049-0.221,0.113-0.43,0.189-0.625c-0.641,0.32-1.153,0.949-1.334,1.746C105.304,5.625,106.033,6.899,107.232,7.151z"/>
	<path d="M96.47,7.151c1.2,0.252,2.414-0.617,2.713-1.938c0.178-0.779-0.006-1.539-0.429-2.086c-0.002,0.203-0.012,0.414-0.03,0.631
		c-0.143,1.817-1.171,2.336-1.928,2.178c-0.756-0.158-1.254-0.739-0.811-2.752c0.05-0.221,0.114-0.43,0.189-0.625
		c-0.64,0.32-1.153,0.949-1.334,1.746C94.542,5.625,95.271,6.899,96.47,7.151z"/>
	<path d="M0,4.918c0,0,34.709-0.137,40.039,0.41c5.33,0.547,32.25,2.733,37.032,2.733c4.54,0,11.287,0.238,13.48-3.006h1.841
		c0.136,2.512,2.08,4.51,4.484,4.51c2.403,0,4.348-1.998,4.483-4.51h1.796c0.136,2.512,2.08,4.51,4.483,4.51
		c2.402,0,4.347-1.998,4.484-4.51h2.512c0.136,2.512,2.08,4.51,4.484,4.51c2.402,0,4.348-1.998,4.482-4.51h1.852
		c2.195,3.245,8.942,3.006,13.481,3.006c4.781,0,31.703-2.186,37.031-2.733c5.33-0.547,40.039-0.41,40.039-0.41
		c1.23-0.41-31.84-1.094-40.039-1.502c-8.199-0.41-24.596-2.598-37.168-2.734c-10.067-0.107-12.772,2.408-13.452,3.416h-1.783
		C123.247,1.783,121.388,0,119.118,0c-2.271,0-4.131,1.783-4.445,4.098h-2.59C111.767,1.783,109.907,0,107.638,0
		c-2.271,0-4.13,1.783-4.444,4.098h-1.874C101.005,1.783,99.146,0,96.876,0c-2.271,0-4.13,1.783-4.445,4.098h-1.772
		c-0.68-1.008-3.385-3.523-13.449-3.416C64.637,0.818,48.238,3.006,40.039,3.416C31.84,3.824-1.229,4.508,0,4.918z M135.926,1.912
		c9.43-0.137,29.928,0.545,29.928,2.322h-38.673C127.181,4.234,126.497,2.049,135.926,1.912z M119.118,0.955
		c1.961,0,3.55,1.688,3.55,3.766c0,2.081-1.589,3.768-3.55,3.768c-1.963,0-3.552-1.688-3.552-3.768
		C115.566,2.643,117.155,0.955,119.118,0.955z M107.638,0.955c1.96,0,3.55,1.688,3.55,3.766c0,2.081-1.59,3.768-3.55,3.768
		c-1.962,0-3.55-1.688-3.55-3.768C104.088,2.643,105.676,0.955,107.638,0.955z M96.876,0.955c1.962,0,3.549,1.688,3.549,3.766
		c0,2.081-1.587,3.768-3.549,3.768c-1.961,0-3.55-1.688-3.55-3.768C93.326,2.643,94.915,0.955,96.876,0.955z M80.079,1.912
		c9.427,0.137,8.746,2.322,8.746,2.322H50.15C50.15,2.457,70.649,1.775,80.079,1.912z"/>
</g>
</svg>
