<?xml version="1.0" encoding="utf-8"?>
<svg version="1.1" baseProfile="tiny" id="Layer_1" xmlns="http://www.w3.org/2000/svg" xmlns:xlink="http://www.w3.org/1999/xlink"
	 x="0px" y="0px" width="100px" height="6.825px" viewBox="0 0 100 6.825" xml:space="preserve">
<g>
	<path d="M63.51,6.286c5.656,0,12.118-2.695,16.43-2.695c4.309,0,19.661-0.267,19.661-0.267S88.288,2.785,79.939,2.785
		c-8.351,0-9.429-2.692-15.622-2.692c-6.198,0-8.081,2.962-8.081,2.962S57.851,6.286,63.51,6.286z"/>
	<path d="M19.26,3.59c4.311,0,10.773,2.695,16.43,2.695s7.273-3.231,7.273-3.231s-1.887-2.962-8.082-2.962
		c-6.194,0-7.272,2.692-15.622,2.692c-8.348,0-19.66,0.539-19.66,0.539S14.952,3.59,19.26,3.59z"/>
	<path d="M49.862,6.825c4.129,0,4.848-3.771,4.848-3.771C53.632,1.258,52.015,0,49.682,0c-2.336,0-4.31,2.335-4.31,2.335
		S45.731,6.825,49.862,6.825z"/>
</g>
</svg>
