<?xml version="1.0" encoding="utf-8"?>
<!-- Generator: Adobe Illustrator 16.0.0, SVG Export Plug-In . SVG Version: 6.00 Build 0)  -->
<!DOCTYPE svg PUBLIC "-//W3C//DTD SVG 1.1//EN" "http://www.w3.org/Graphics/SVG/1.1/DTD/svg11.dtd">
<svg version="1.1" id="Layer_1" xmlns="http://www.w3.org/2000/svg" xmlns:xlink="http://www.w3.org/1999/xlink" x="0px" y="0px"
	 width="170px" height="8.91px" viewBox="0 0 170 8.91" enable-background="new 0 0 170 8.91" xml:space="preserve">
<g>
	<path fill="#4D4D4F" d="M86.979,4.752c0,0,0.792-2.179-1.781-2.179c-2.575,0-2.179,1.98-2.179,1.98
		C86.187,1.981,86.979,4.752,86.979,4.752z"/>
	<path fill="#4D4D4F" d="M37.438,4.139c3.73,0.435,15.66,1.843,21.625,2.838C66.19,8.165,79.06,10.144,79.06,4.998l-0.016-0.246
		h1.713c0.155,2.323,2.081,4.158,4.441,4.158c2.358,0,4.285-1.835,4.439-4.158h1.327c0.498,4.708,9.947,3.922,19.775,2.573
		c5.112-0.701,10.732-1.098,15.033-1.318c0,0,44.228-0.177,44.228-0.396c0-0.219-37.438-0.396-37.438-0.396
		c-3.73-0.434-15.66-1.844-21.625-2.838c-7.031-1.173-19.644-3.111-19.981,1.781h-1.319C89.482,1.837,87.556,0,85.198,0
		c-2.36,0-4.286,1.837-4.441,4.158h-1.8c-1.036-4.213-10.188-3.436-19.696-2.13c-5.112,0.699-10.732,1.098-15.035,1.318
		C44.226,3.347,0,3.523,0,3.743C0,3.961,37.438,4.139,37.438,4.139z M102.621,3.365c6.533,0.396,16.434,1.98,16.434,1.98
		s-11.681,1.584-17.226,2.179C96.285,8.12,91.535,6.93,91.535,5.148C91.535,3.365,96.086,2.971,102.621,3.365z M84.998,1.585
		c1.696,0,3.069,1.373,3.069,3.069c0,1.695-1.374,3.068-3.069,3.068c-1.694,0-3.068-1.373-3.068-3.068
		C81.93,2.958,83.304,1.585,84.998,1.585z M68.039,3.017c5.542-0.594,10.294,0.596,10.294,2.377c0,1.781-4.554,2.177-11.087,1.781
		c-6.532-0.396-16.432-1.98-16.432-1.98S62.494,3.612,68.039,3.017z"/>
</g>
</svg>
