<?xml version="1.0" encoding="utf-8"?>
<!-- Generator: Adobe Illustrator 16.0.0, SVG Export Plug-In . SVG Version: 6.00 Build 0)  -->
<!DOCTYPE svg PUBLIC "-//W3C//DTD SVG 1.1//EN" "http://www.w3.org/Graphics/SVG/1.1/DTD/svg11.dtd">
<svg version="1.1" id="Layer_1" xmlns="http://www.w3.org/2000/svg" xmlns:xlink="http://www.w3.org/1999/xlink" x="0px" y="0px"
	 width="92.805px" height="9.225px" viewBox="0 0 92.805 9.225" enable-background="new 0 0 92.805 9.225" xml:space="preserve">
<g>
	<path d="M90.053,4.92c0,0,0.82-2.256-1.844-2.256c-2.667,0-2.256,2.051-2.256,2.051C89.232,2.051,90.053,4.92,90.053,4.92z"/>
	<path d="M92.805,4.305C92.645,1.902,90.65,0,88.209,0c-2.444,0-4.438,1.902-4.598,4.305V4.92c0.16,2.405,2.154,4.305,4.598,4.305
		c2.441,0,4.436-1.9,4.596-4.305V4.305z M81.748,4.305C80.675-0.057,71.199,0.748,61.355,2.1
		c-5.293,0.725-11.111,1.137-15.566,1.365c0,0-45.789,0.184-45.789,0.41s38.762,0.41,38.762,0.41
		c3.861,0.449,16.213,1.909,22.389,2.938c7.378,1.23,20.703,3.279,20.703-2.049L81.838,4.92 M88.002,1.641
		c1.756,0,3.178,1.422,3.178,3.178c0,1.754-1.422,3.176-3.178,3.176c-1.754,0-3.176-1.422-3.176-3.176
		C84.826,3.062,86.248,1.641,88.002,1.641z M70.443,3.123c5.738-0.615,10.658,0.617,10.658,2.461c0,1.844-4.715,2.254-11.479,1.844
		c-6.763-0.41-17.013-2.051-17.013-2.051S64.703,3.74,70.443,3.123z"/>
</g>
</svg>
