<?xml version="1.0" encoding="utf-8"?>
<!-- Generator: Adobe Illustrator 16.0.0, SVG Export Plug-In . SVG Version: 6.00 Build 0)  -->
<!DOCTYPE svg PUBLIC "-//W3C//DTD SVG 1.1//EN" "http://www.w3.org/Graphics/SVG/1.1/DTD/svg11.dtd">
<svg version="1.1" id="Layer_1" xmlns="http://www.w3.org/2000/svg" xmlns:xlink="http://www.w3.org/1999/xlink" x="0px" y="0px"
	 width="92.805px" height="9.225px" viewBox="0 0 92.805 9.225" enable-background="new 0 0 92.805 9.225" xml:space="preserve">
<g>
	<path d="M2.752,4.92c0,0-0.82-2.256,1.844-2.256c2.667,0,2.256,2.051,2.256,2.051C3.572,2.051,2.752,4.92,2.752,4.92z"/>
	<path d="M0,4.92c0.16,2.405,2.154,4.305,4.596,4.305c2.444,0,4.438-1.9,4.598-4.305V4.305C9.034,1.902,7.04,0,4.596,0
		C2.154,0,0.16,1.902,0,4.305V4.92z M10.967,4.92l-0.015,0.254c0,5.328,13.324,3.279,20.703,2.049
		c6.176-1.029,18.527-2.489,22.389-2.938c0,0,38.762-0.184,38.762-0.41s-45.789-0.41-45.789-0.41
		C42.561,3.236,36.742,2.824,31.449,2.1c-9.843-1.352-19.32-2.156-20.392,2.205 M7.979,4.818c0,1.754-1.422,3.176-3.176,3.176
		c-1.756,0-3.178-1.422-3.178-3.176c0-1.756,1.422-3.178,3.178-3.178C6.557,1.641,7.979,3.062,7.979,4.818z M40.195,5.377
		c0,0-10.25,1.641-17.013,2.051c-6.764,0.41-11.479,0-11.479-1.844c0-1.844,4.92-3.077,10.658-2.461
		C28.102,3.74,40.195,5.377,40.195,5.377z"/>
</g>
</svg>
